<svg width="46" height="12" viewBox="0 0 46 12" fill="none" xmlns="http://www.w3.org/2000/svg">
<path fill-rule="evenodd" clip-rule="evenodd" d="M6.51263 6.2816V4.20316L0.766985 6.33873H0.756104V8.47158H0.766985L6.51263 10.6072V8.52599L3.56635 7.39971L6.51263 6.27888V6.2816Z" fill="#F7DD43"/>
<path fill-rule="evenodd" clip-rule="evenodd" d="M39.7922 10.5037V8.42528L42.7358 7.30716L39.7922 6.18905V4.1106L45.5297 6.24618H45.5433V8.38175H45.5297L39.7922 10.5064V10.5037ZM37.3275 1.16977L33.9541 12H35.9564L39.3298 1.16977H37.3275Z" fill="#F7DD43"/>
<path fill-rule="evenodd" clip-rule="evenodd" d="M14.9543 3.91747C15.5256 4.54317 15.8249 5.3702 15.7895 6.21627V10.8302H13.7872V6.64066C13.8117 6.17274 13.6621 5.7157 13.3683 5.35116C13.0908 5.02742 12.68 4.84787 12.2529 4.86691C10.9987 4.86691 10.3703 5.73746 10.3703 7.47585V10.8302H8.36804V3.25639H10.3703V3.93923C11.0069 3.32168 11.8693 2.99251 12.7562 3.03059C13.5832 2.99523 14.383 3.31896 14.9543 3.91747V3.91747Z" fill="#F7DD43"/>
<path fill-rule="evenodd" clip-rule="evenodd" d="M18.3413 0V10.8302H20.3436V0H18.3413Z" fill="#F7DD43"/>
<path fill-rule="evenodd" clip-rule="evenodd" d="M31.6661 10.8302H29.9958L28.358 6.36862L26.704 10.8302H25.0336L22.2261 3.2428H24.3671L25.945 7.78055L27.5718 3.2428H29.1361L30.7629 7.79415L32.3408 3.2428H34.4818L31.6716 10.8302H31.6661Z" fill="#F7DD43"/>
</svg>
