<svg width="50" height="18" viewBox="0 0 50 18" fill="none" xmlns="http://www.w3.org/2000/svg">
<path d="M6.07958 17.9981C4.15327 17.9981 2.12949 17.6331 0.543335 16.754V1.24411C2.10464 0.389878 4.12842 2.85548e-05 6.07958 2.85548e-05C8.03074 2.85548e-05 10.0067 0.365035 11.5661 1.24411V7.19505H7.63898V3.14558C7.17651 2.95066 6.61467 2.87804 6.05474 2.87804C5.49481 2.87804 4.98074 2.95066 4.49343 3.14558V14.8525C4.9559 15.0475 5.4929 15.1201 6.05474 15.1201C6.61658 15.1201 7.15167 15.0475 7.63898 14.8525V10.805H11.5661V16.7559C10.0297 17.6101 8.0059 17.9752 6.07958 18V17.9981Z" fill="#F7DD43"/>
<path d="M18.9313 17.9981C16.8579 17.9981 14.8589 17.5585 13.2728 16.6565V1.3167C14.8341 0.439536 16.8349 0 18.9313 0C21.0277 0 22.9789 0.414693 24.5402 1.3167V16.6565C23.0037 17.5585 20.9799 17.9732 18.9313 17.9981ZM20.6149 3.19524C20.1525 3.00031 19.5906 2.90285 18.9084 2.90285C18.2262 2.90285 17.6892 3.00031 17.2248 3.19524V14.7799C17.6873 14.9997 18.2491 15.0971 18.9084 15.0971C19.5677 15.0971 20.1276 14.9997 20.6149 14.7799V3.19524Z" fill="#F7DD43"/>
<path d="M31.3931 11.4127H30.3439V17.7783H26.369V0.219779H31.3931C33.7838 0.219779 35.5878 0.707092 37.0019 1.70656V9.92589C35.6126 10.9024 33.7818 11.4127 31.3931 11.4127ZM33.0518 3.24303C32.6868 2.97548 32.1976 2.85318 31.3682 2.85318H30.2942V8.77927H31.3682C32.1728 8.77927 32.6601 8.65697 33.0518 8.41427V3.24303Z" fill="#F7DD43"/>
<path d="M45.3168 17.7783V11.4127H42.391V17.7783H38.4409V1.29185C39.8799 0.437625 41.9037 0 43.8549 0C45.806 0 47.805 0.439537 49.244 1.29185V17.7783H45.3168ZM45.3168 3.04809C44.9021 2.85316 44.39 2.7557 43.853 2.7557C43.316 2.7557 42.8038 2.85316 42.3891 3.04809V8.63211H45.3149V3.04809H45.3168Z" fill="#F7DD43"/>
</svg>
